<?xml version="1.0" standalone="no"?>
<!DOCTYPE svg PUBLIC "-//W3C//DTD SVG 20010904//EN"
 "http://www.w3.org/TR/2001/REC-SVG-20010904/DTD/svg10.dtd">
<svg version="1.0" xmlns="http://www.w3.org/2000/svg"
 width="712.000000pt" height="113.000000pt" viewBox="0 0 712.000000 113.000000"
 preserveAspectRatio="xMidYMid meet">

<g transform="translate(0.000000,113.000000) scale(0.100000,-0.100000)"
fill="#000000" stroke="none">
<path d="M152 1111 c-63 -22 -107 -61 -133 -116 -17 -37 -19 -72 -19 -423 0
-324 2 -388 16 -420 19 -47 58 -88 109 -115 39 -22 47 -22 525 -22 l485 0 55
31 c32 18 68 49 85 73 l30 43 0 406 0 407 -26 38 c-15 21 -42 49 -60 63 -70
52 -97 54 -573 54 -401 -1 -446 -2 -494 -19z m967 -37 c64 -19 127 -73 142
-123 6 -23 9 -163 7 -403 -3 -414 1 -390 -87 -453 l-43 -30 -470 -3 -470 -3
-52 24 c-37 17 -60 36 -77 63 l-24 39 -3 362 c-3 404 0 428 55 480 62 59 83
62 549 62 353 1 429 -2 473 -15z"/>
<path d="M340 570 l0 -280 315 0 315 0 0 280 0 280 -315 0 -315 0 0 -280z
m590 0 l0 -240 -275 0 -275 0 0 240 0 240 275 0 275 0 0 -240z"/>
<path d="M1412 573 l3 -558 193 -3 192 -2 0 280 0 280 276 -280 277 -280 188
0 189 0 0 560 0 560 -190 0 -190 0 0 -282 -1 -283 -279 283 -279 282 -191 0
-190 0 2 -557z m665 205 l313 -313 0 313 0 312 150 0 150 0 0 -515 0 -515
-162 0 -162 0 -302 307 -303 308 0 -307 -1 -308 -150 0 -150 0 0 515 0 515
152 0 153 0 312 -312z"/>
<path d="M2830 570 l0 -560 585 0 585 0 0 160 0 160 -395 0 -395 0 0 35 0 35
208 2 207 3 0 160 0 160 -207 3 -208 2 0 40 0 40 395 0 395 0 0 160 0 160
-585 0 -585 0 0 -560z m1130 405 l0 -115 -395 0 -395 0 0 -84 0 -83 31 -7 c17
-3 110 -6 205 -6 l174 0 0 -115 0 -115 -205 0 -205 0 0 -85 0 -85 395 0 395 0
0 -110 0 -110 -545 0 -545 0 0 515 0 515 545 0 545 0 0 -115z"/>
<path d="M4077 1124 c-4 -4 -7 -259 -7 -566 l0 -558 223 2 222 3 3 183 2 182
210 0 210 0 0 -185 0 -185 225 0 225 0 -2 563 -3 562 -220 0 -220 0 -3 -187
-2 -188 -210 0 -210 0 -2 188 -3 187 -216 3 c-118 1 -218 -1 -222 -4z m413
-209 l0 -185 240 0 240 0 0 185 0 185 195 0 195 0 0 -535 0 -535 -195 0 -195
0 -2 183 -3 182 -235 0 -235 0 -3 -182 -2 -183 -200 0 -200 0 0 535 0 535 200
0 200 0 0 -185z"/>
<path d="M4150 565 l0 -486 143 3 142 3 3 183 2 182 290 0 290 0 2 -182 3
-183 143 -3 142 -3 -2 483 -3 483 -140 0 -140 0 -3 -187 -2 -188 -290 0 -290
0 -2 188 -3 187 -142 3 -143 3 0 -486z"/>
<path d="M5460 940 l0 -190 88 0 c87 -1 87 -1 52 -16 -45 -20 -86 -59 -113
-109 -20 -36 -22 -58 -25 -236 -4 -222 1 -242 76 -317 75 -75 44 -72 671 -72
l561 0 0 190 0 190 -76 0 -76 0 48 33 c32 21 57 48 74 82 24 47 25 58 28 250
l3 201 -33 49 c-39 58 -104 110 -156 125 -23 6 -237 10 -579 10 l-543 0 0
-190z m1176 128 c27 -18 62 -53 79 -76 l30 -44 0 -196 c0 -211 -4 -230 -59
-290 -50 -56 -53 -57 -436 -62 -327 -5 -355 -6 -358 -22 -3 -17 24 -18 425
-20 l428 -3 3 -162 2 -163 -550 0 c-623 0 -591 -4 -664 82 -53 61 -59 91 -55
284 4 156 6 173 29 219 16 32 41 61 68 80 l44 30 356 5 c330 5 357 6 360 23 3
16 -22 17 -427 17 l-431 0 0 165 0 165 554 0 554 0 48 -32z"/>
<path d="M5540 940 l0 -110 418 0 c312 0 421 -3 430 -12 7 -7 12 -35 12 -63 0
-28 -5 -56 -12 -63 -9 -9 -103 -12 -363 -12 -344 0 -352 0 -395 -22 -33 -17
-51 -35 -67 -68 -21 -41 -23 -58 -23 -221 0 -167 1 -178 23 -210 12 -18 38
-44 56 -56 l34 -23 518 0 519 0 0 110 0 110 -418 0 c-312 0 -421 3 -430 12
-16 16 -15 113 1 126 9 8 134 12 378 14 l364 3 34 24 c61 43 71 83 71 281 0
199 -4 210 -81 262 l-42 28 -514 0 -513 0 0 -110z"/>
<path d="M6944 1111 c-11 -5 -33 -24 -48 -42 -23 -27 -27 -40 -23 -72 7 -48
39 -84 87 -97 75 -20 147 24 157 98 5 35 1 44 -29 77 -27 30 -42 38 -78 41
-25 2 -54 0 -66 -5z m127 -40 c47 -48 38 -116 -21 -146 -108 -56 -214 62 -131
146 24 24 38 29 76 29 38 0 52 -5 76 -29z"/>
<path d="M6942 1009 c2 -39 8 -64 16 -67 8 -2 12 7 12 27 0 40 17 39 51 -1 32
-39 50 -31 21 9 -19 27 -19 30 -4 40 30 20 2 48 -52 51 l-47 3 3 -62z m75 36
c7 -19 5 -20 -24 -29 -20 -6 -23 -4 -23 18 0 19 5 26 20 26 11 0 23 -7 27 -15z"/>
</g>
</svg>
