<?xml version="1.0" standalone="no"?>
<!DOCTYPE svg PUBLIC "-//W3C//DTD SVG 20010904//EN"
 "http://www.w3.org/TR/2001/REC-SVG-20010904/DTD/svg10.dtd">
<svg version="1.0" xmlns="http://www.w3.org/2000/svg"
 width="210.000000pt" height="75.000000pt" viewBox="0 0 210.000000 75.000000"
 preserveAspectRatio="xMidYMid meet">

<g transform="translate(0.000000,75.000000) scale(0.100000,-0.100000)"
fill="#000000" stroke="none">
<path d="M172 702 l-93 -47 3 -85 3 -85 88 -3 87 -3 0 -124 0 -125 -90 0 -90
0 0 -115 0 -115 290 0 290 0 0 120 0 120 -90 0 -91 0 1 243 c0 133 1 248 0
255 0 9 -28 12 -107 11 l-108 0 -93 -47z m278 -252 l0 -259 88 -3 87 -3 3 -67
3 -68 -256 0 -255 0 0 70 0 70 88 0 87 0 0 163 0 162 -90 5 -90 5 -3 51 -3 50
88 42 c81 39 94 42 170 42 l83 0 0 -260z"/>
<path d="M700 375 l0 -375 110 0 109 0 3 122 3 123 105 0 105 0 3 -123 3 -122
109 0 110 0 0 375 0 375 -110 0 -110 0 0 -125 0 -125 -110 0 -110 0 0 125 0
125 -110 0 -110 0 0 -375z m210 230 l0 -126 118 3 117 3 3 123 3 122 99 0 100
0 0 -355 0 -355 -100 0 -100 0 0 120 0 120 -120 0 -120 0 0 -120 0 -120 -100
0 -100 0 0 355 0 355 100 0 100 0 0 -125z"/>
<path d="M747 693 c-4 -3 -7 -150 -7 -325 l0 -318 70 0 69 0 3 123 3 122 145
0 145 0 3 -123 3 -122 69 0 70 0 -2 322 -3 323 -67 3 -68 3 0 -126 0 -125
-150 0 -150 0 0 125 0 125 -63 0 c-35 0 -67 -3 -70 -7z"/>
<path d="M1400 625 l0 -125 37 0 37 0 -26 -27 c-44 -48 -48 -65 -48 -219 0
-140 1 -150 25 -190 14 -24 34 -48 45 -54 11 -6 128 -10 299 -10 l281 0 0 125
0 125 -37 0 -37 0 26 27 c39 43 48 85 48 226 0 121 -2 133 -25 174 -43 72 -48
73 -355 73 l-270 0 0 -125z m578 89 c48 -33 62 -83 62 -216 0 -100 -4 -131
-20 -166 -29 -64 -57 -72 -250 -72 -98 0 -160 -4 -160 -10 0 -6 82 -11 213
-12 l212 -3 3 -107 3 -108 -279 0 -278 0 -26 28 c-44 47 -48 64 -48 207 0 143
6 171 50 210 20 18 39 20 196 23 96 2 174 8 174 13 0 5 -89 9 -210 9 l-210 0
0 110 0 110 273 0 c231 0 276 -2 295 -16z"/>
<path d="M1438 675 c-3 -13 -3 -47 0 -75 l5 -50 208 0 209 0 0 -50 0 -50 -179
0 c-99 0 -187 -3 -196 -6 -30 -12 -46 -62 -49 -160 -4 -123 5 -178 34 -209
l23 -25 259 0 258 0 0 75 0 75 -212 2 -213 3 0 45 0 45 190 5 189 5 23 34 c21
31 23 45 23 163 l0 130 -34 34 -34 34 -250 0 -250 0 -4 -25z"/>
</g>
</svg>
